<svg xmlns="http://www.w3.org/2000/svg" width="112.385" height="31.917" viewBox="0 0 112.385 31.917">
    <g>
        <path data-name="Path 6674" d="M177 235.9h5.17v31.917H177z" transform="translate(-147.78 -235.9)" style="fill:#fff"/>
        <path data-name="Path 6675" d="M239.16 302.563c0 4.945-4.046 5.395-5.394 5.395-3.147 0-3.6-2.922-3.6-4.5V291.1H225v12.138c0 2.922.9 5.619 2.7 7.193a8.136 8.136 0 0 0 6.069 2.248 7.848 7.848 0 0 0 5.394-1.8v1.8h5.17V291.1h-5.17z" transform="translate(-186.789 -280.761)" style="fill:#fff"/>
        <path data-name="Path 6676" d="M343.191 249.1h-5.17v7.867H334.2v4.945h3.821v16.633h5.17v-16.633h3.821v-4.945h-3.821z" transform="translate(-275.535 -246.627)" style="fill:#fff"/>
        <path data-name="Path 6677" d="M422.684 304.209a7.1 7.1 0 0 1-4.271 1.573 5.964 5.964 0 0 1-6.069-6.294 5.781 5.781 0 0 1 6.069-6.069 5.933 5.933 0 0 1 4.271 1.573l.674.674 3.6-3.372-.9-.674a11.525 11.525 0 0 0-7.642-2.922 11.014 11.014 0 0 0 0 22.027 11.525 11.525 0 0 0 7.642-2.922l.9-.674-3.6-3.6z" transform="translate(-335.024 -278.81)" style="fill:#fff"/>
        <path data-name="Path 6678" d="M540.734 248.038a7.133 7.133 0 0 0-5.619-2.248 6.76 6.76 0 0 0-4.945 1.8V235.9H525v31.917h5.17V255.9c0-4.945 3.371-5.395 4.72-5.395 3.147 0 2.922 2.922 2.922 4.5v12.587h5.17V255.23c0-2.922-.675-5.619-2.248-7.192z" transform="translate(-430.597 -235.9)" style="fill:#fff"/>
        <circle data-name="Ellipse 790" cx="3.596" cy="3.596" r="3.596" transform="translate(79.568 17.307)" style="fill:#ef4335"/>
        <path data-name="Path 6679" d="M43.027 264.8a10.54 10.54 0 0 1-7.417 2.922c-5.619 0-9.665-4.5-9.665-10.564s4.046-10.564 9.89-10.564a10.577 10.577 0 0 1 7.417 3.147l.674.674 3.372-3.372-.674-.674a15.137 15.137 0 0 0-10.789-4.5C27.294 241.652 21 248.395 21 257.161s6.294 15.509 14.61 15.509a14.762 14.762 0 0 0 10.789-4.5l.674-.674-3.373-3.367z" transform="translate(-21 -240.752)" style="fill:#fff"/>
    </g>
</svg>
