<svg xmlns="http://www.w3.org/2000/svg" width="230.15" height="34.99" viewBox="0 0 230.15 34.99">
    <defs>
        <linearGradient id="j1ca3wvkva" y1=".599" x2="1.397" y2=".5" gradientUnits="objectBoundingBox">
            <stop offset="0" stop-color="#e43c24"/>
            <stop offset="1" stop-color="#fb563d"/>
        </linearGradient>
    </defs>
    <path data-name="Union 66" d="m210.678 27.316-10.705 5.63 2.047-11.922-8.658-8.439 11.966-1.735L210.678 0l5.356 10.849L228 12.584l-8.658 8.439 2.042 11.922zm-48.339 0-10.705 5.63 2.045-11.922-8.656-8.439 11.966-1.735L162.34 0l5.35 10.849 11.972 1.735L171 21.023l2.047 11.922zm-48.341 0-10.7 5.63 2.045-11.922-8.664-8.439 11.972-1.735L114 0l5.356 10.849 11.968 1.735-8.664 8.439 2.04 11.922zm-48.339 0-10.705 5.63L57 21.023l-8.664-8.439 11.972-1.735L65.66 0l5.35 10.849 11.966 1.735-8.656 8.439 2.045 11.922zm-48.339 0L6.616 32.945l2.048-11.922L0 12.584l11.972-1.735L17.322 0l5.35 10.849 11.966 1.735-8.658 8.439 2.047 11.922z" transform="translate(1.075 1.13)" style="stroke:transparent;stroke-miterlimit:10;fill:url(#j1ca3wvkva)"/>
</svg>
